<svg width="1200" height="630" viewBox="0 0 1200 630" fill="none" xmlns="http://www.w3.org/2000/svg">
<g clip-path="url(#clip0_7_2)">
<g clip-path="url(#clip1_7_2)">
<path d="M1200 0H0V630H1200V0Z" fill="url(#paint0_linear_7_2)"/>
<path d="M479.115 211.166V193.418H562.737V211.166H531.565V295.236H510.287V211.166H479.115ZM576.508 295.236V193.418H617.275C624.766 193.418 631.013 194.528 636.018 196.749C641.023 198.969 644.785 202.052 647.304 205.996C649.823 209.907 651.082 214.414 651.082 219.518C651.082 223.496 650.287 226.992 648.696 230.008C647.105 232.991 644.917 235.444 642.133 237.366C639.382 239.256 636.234 240.598 632.687 241.393V242.388C636.565 242.553 640.194 243.647 643.575 245.669C646.989 247.691 649.756 250.525 651.877 254.17C653.999 257.783 655.059 262.092 655.059 267.097C655.059 272.499 653.717 277.321 651.032 281.564C648.381 285.773 644.453 289.104 639.25 291.557C634.046 294.009 627.633 295.236 620.01 295.236H576.508ZM598.035 277.636H615.585C621.584 277.636 625.959 276.493 628.71 274.206C631.461 271.886 632.836 268.803 632.836 264.959C632.836 262.141 632.157 259.656 630.798 257.501C629.439 255.347 627.5 253.657 624.981 252.43C622.495 251.204 619.529 250.591 616.082 250.591H598.035V277.636ZM598.035 236.024H613.994C616.944 236.024 619.562 235.51 621.849 234.483C624.169 233.422 625.992 231.931 627.318 230.008C628.677 228.086 629.356 225.783 629.356 223.098C629.356 219.419 628.047 216.453 625.429 214.199C622.843 211.945 619.164 210.818 614.392 210.818H598.035V236.024ZM669.067 295.236V193.418H709.237C716.927 193.418 723.489 194.793 728.925 197.544C734.393 200.262 738.553 204.123 741.403 209.128C744.287 214.099 745.729 219.949 745.729 226.677C745.729 233.439 744.27 239.256 741.354 244.128C738.437 248.967 734.211 252.679 728.676 255.264C723.174 257.849 716.512 259.142 708.69 259.142H681.794V241.841H705.21C709.32 241.841 712.734 241.277 715.452 240.15C718.169 239.024 720.191 237.333 721.517 235.079C722.876 232.826 723.555 230.025 723.555 226.677C723.555 223.297 722.876 220.446 721.517 218.126C720.191 215.806 718.153 214.05 715.402 212.856C712.684 211.63 709.254 211.017 705.111 211.017H690.594V295.236H669.067ZM724.053 248.9L749.358 295.236H725.594L700.835 248.9H724.053Z" fill="#3D3D3D"/>
<path d="M772.923 296.528C769.642 296.528 766.825 295.368 764.472 293.048C762.152 290.695 760.991 287.878 760.991 284.597C760.991 281.348 762.152 278.564 764.472 276.244C766.825 273.924 769.642 272.764 772.923 272.764C776.105 272.764 778.889 273.924 781.276 276.244C783.662 278.564 784.855 281.348 784.855 284.597C784.855 286.784 784.292 288.789 783.165 290.612C782.071 292.402 780.629 293.844 778.839 294.937C777.05 295.998 775.078 296.528 772.923 296.528ZM843.309 218.872V234.781H796.178V218.872H843.309ZM806.966 295.236V213.354C806.966 207.819 808.043 203.228 810.198 199.582C812.385 195.936 815.368 193.202 819.147 191.379C822.925 189.556 827.217 188.645 832.023 188.645C835.271 188.645 838.238 188.893 840.922 189.391C843.64 189.888 845.662 190.335 846.988 190.733L843.209 206.642C842.381 206.377 841.353 206.128 840.127 205.896C838.934 205.664 837.707 205.548 836.448 205.548C833.332 205.548 831.161 206.277 829.935 207.736C828.709 209.161 828.096 211.166 828.096 213.751V295.236H806.966ZM869.322 323.872C866.638 323.872 864.119 323.657 861.766 323.226C859.446 322.828 857.523 322.314 855.999 321.685L860.771 305.875C863.257 306.637 865.494 307.052 867.483 307.118C869.505 307.184 871.245 306.72 872.703 305.726C874.195 304.731 875.404 303.041 876.332 300.655L877.575 297.423L850.182 218.872H872.455L888.264 274.952H889.06L905.018 218.872H927.44L897.76 303.489C896.335 307.598 894.396 311.178 891.943 314.227C889.524 317.31 886.458 319.679 882.746 321.337C879.034 323.027 874.559 323.872 869.322 323.872ZM938.278 295.236V218.872H959.457V295.236H938.278ZM948.918 209.028C945.769 209.028 943.068 207.984 940.814 205.896C938.593 203.775 937.483 201.24 937.483 198.29C937.483 195.373 938.593 192.871 940.814 190.783C943.068 188.661 945.769 187.601 948.918 187.601C952.066 187.601 954.751 188.661 956.972 190.783C959.225 192.871 960.352 195.373 960.352 198.29C960.352 201.24 959.225 203.775 956.972 205.896C954.751 207.984 952.066 209.028 948.918 209.028Z" fill="#C4A67C"/>
<path d="M415.479 156H243.933C220.774 156 202 174.774 202 197.933V302.767C202 325.926 220.774 344.7 243.933 344.7H415.479C438.638 344.7 457.412 325.926 457.412 302.767V197.933C457.412 174.774 438.638 156 415.479 156Z" fill="white"/>
<path d="M253.464 344.7H297.303L253.464 407.6V344.7Z" fill="white"/>
<path d="M384.982 197.933H293.491C288.227 197.933 283.961 202.2 283.961 207.464V310.391C283.961 315.654 288.227 319.921 293.491 319.921H384.982C390.245 319.921 394.512 315.654 394.512 310.391V207.464C394.512 202.2 390.245 197.933 384.982 197.933Z" fill="#C4A67C"/>
<path d="M339.236 197.933V319.921" stroke="#A8845C" stroke-width="5.4"/>
<path opacity="0.7" d="M327.8 222.712H299.209C297.104 222.712 295.397 224.419 295.397 226.524V228.43C295.397 230.536 297.104 232.242 299.209 232.242H327.8C329.905 232.242 331.612 230.536 331.612 228.43V226.524C331.612 224.419 329.905 222.712 327.8 222.712Z" fill="white"/>
<path opacity="0.5" d="M320.176 241.773H297.303C296.25 241.773 295.397 242.626 295.397 243.679V245.585C295.397 246.638 296.25 247.491 297.303 247.491H320.176C321.228 247.491 322.082 246.638 322.082 245.585V243.679C322.082 242.626 321.228 241.773 320.176 241.773Z" fill="white"/>
<path d="M414.982 411.514L414.154 418H421.468L421.33 419.748L413.97 419.84C413.847 421.128 413.694 422.462 413.51 423.842C413.357 425.191 413.219 426.541 413.096 427.89C412.973 429.239 412.866 430.543 412.774 431.8C412.682 433.027 412.636 434.146 412.636 435.158C412.636 435.741 412.667 436.354 412.728 436.998C412.82 437.611 413.019 438.133 413.326 438.562C413.633 438.961 414.123 439.16 414.798 439.16C415.105 439.16 415.473 439.099 415.902 438.976C416.362 438.853 416.868 438.562 417.42 438.102C417.972 437.642 418.539 436.921 419.122 435.94L420.318 436.722C419.429 438.286 418.463 439.482 417.42 440.31C416.408 441.107 415.166 441.506 413.694 441.506C412.498 441.506 411.547 441.261 410.842 440.77C410.167 440.249 409.677 439.574 409.37 438.746C409.063 437.918 408.91 437.029 408.91 436.078C408.91 434.913 408.956 433.502 409.048 431.846C409.14 430.159 409.278 428.304 409.462 426.28C409.646 424.225 409.861 422.094 410.106 419.886L406.012 419.932L406.15 418C408.266 418 409.83 417.433 410.842 416.298C411.854 415.163 412.651 413.569 413.234 411.514H414.982ZM434.728 417.494C435.832 417.494 436.875 417.663 437.856 418C438.837 418.337 439.635 418.889 440.248 419.656C440.861 420.423 441.168 421.465 441.168 422.784C441.168 424.041 440.739 425.13 439.88 426.05C439.021 426.97 437.902 427.737 436.522 428.35C435.142 428.933 433.67 429.408 432.106 429.776C430.542 430.144 429.039 430.405 427.598 430.558C427.598 432.459 427.782 434.054 428.15 435.342C428.549 436.63 429.131 437.596 429.898 438.24C430.665 438.884 431.646 439.206 432.842 439.206C433.731 439.206 434.621 439.007 435.51 438.608C436.43 438.209 437.304 437.611 438.132 436.814C438.96 435.986 439.711 434.928 440.386 433.64L441.904 434.514C441.045 436.109 440.125 437.427 439.144 438.47C438.163 439.513 437.089 440.279 435.924 440.77C434.759 441.261 433.471 441.506 432.06 441.506C429.147 441.506 427 440.601 425.62 438.792C424.24 436.952 423.55 434.545 423.55 431.57C423.55 429.791 423.78 428.059 424.24 426.372C424.7 424.685 425.39 423.183 426.31 421.864C427.23 420.515 428.395 419.457 429.806 418.69C431.217 417.893 432.857 417.494 434.728 417.494ZM434.084 419.058C432.673 419.058 431.508 419.533 430.588 420.484C429.699 421.435 429.009 422.661 428.518 424.164C428.058 425.667 427.767 427.246 427.644 428.902C429.269 428.687 430.818 428.304 432.29 427.752C433.762 427.2 434.973 426.495 435.924 425.636C436.875 424.747 437.35 423.719 437.35 422.554C437.35 421.573 437.074 420.745 436.522 420.07C436.001 419.395 435.188 419.058 434.084 419.058ZM446.771 441.506C445.912 441.506 445.222 441.291 444.701 440.862C444.179 440.402 443.919 439.835 443.919 439.16C443.919 438.516 444.103 438.01 444.471 437.642C444.869 437.243 445.314 437.044 445.805 437.044C446.51 437.044 446.97 437.274 447.185 437.734C447.399 438.163 447.522 438.562 447.553 438.93C448.411 439.114 449.347 438.501 450.359 437.09C451.401 435.679 452.551 433.119 453.809 429.408C453.195 427.783 452.674 426.387 452.245 425.222C451.846 424.057 451.478 423.106 451.141 422.37C450.834 421.665 450.527 421.143 450.221 420.806C449.945 420.469 449.592 420.3 449.163 420.3C448.611 420.3 448.105 420.607 447.645 421.22C447.185 421.803 446.909 422.999 446.817 424.808L445.483 424.854C445.483 424.241 445.544 423.52 445.667 422.692C445.789 421.864 446.019 421.051 446.357 420.254C446.694 419.457 447.185 418.797 447.829 418.276C448.473 417.755 449.316 417.494 450.359 417.494C451.432 417.494 452.245 417.801 452.797 418.414C453.379 419.027 453.916 419.917 454.407 421.082C454.683 421.787 454.959 422.6 455.235 423.52C455.541 424.44 455.894 425.452 456.293 426.556C457.121 424.563 457.918 422.968 458.685 421.772C459.482 420.545 460.233 419.625 460.939 419.012C461.644 418.399 462.288 418 462.871 417.816C463.484 417.601 464.005 417.494 464.435 417.494C465.232 417.494 465.845 417.709 466.275 418.138C466.704 418.567 466.919 419.104 466.919 419.748C466.919 420.269 466.735 420.729 466.367 421.128C465.999 421.527 465.554 421.726 465.033 421.726C464.358 421.726 463.867 421.557 463.561 421.22C463.285 420.852 463.07 420.561 462.917 420.346C462.487 420.407 461.981 420.699 461.399 421.22C460.847 421.711 460.218 422.554 459.513 423.75C458.807 424.946 458.01 426.633 457.121 428.81C457.857 430.681 458.501 432.245 459.053 433.502C459.605 434.759 460.095 435.771 460.525 436.538C460.985 437.305 461.399 437.857 461.767 438.194C462.165 438.531 462.549 438.7 462.917 438.7C463.469 438.7 463.944 438.409 464.343 437.826C464.741 437.213 465.048 436.293 465.263 435.066L466.551 435.25C466.459 436.017 466.305 436.783 466.091 437.55C465.876 438.286 465.585 438.961 465.217 439.574C464.879 440.157 464.435 440.632 463.883 441C463.361 441.337 462.717 441.506 461.951 441.506C461.184 441.506 460.525 441.383 459.973 441.138C459.421 440.893 458.899 440.433 458.409 439.758C457.918 439.053 457.381 438.056 456.799 436.768C456.247 435.48 455.557 433.793 454.729 431.708H454.683C453.916 433.947 453.18 435.725 452.475 437.044C451.769 438.363 451.079 439.344 450.405 439.988C449.761 440.632 449.132 441.046 448.519 441.23C447.905 441.414 447.323 441.506 446.771 441.506ZM478.277 411.514L477.449 418H484.763L484.625 419.748L477.265 419.84C477.142 421.128 476.989 422.462 476.805 423.842C476.652 425.191 476.514 426.541 476.391 427.89C476.268 429.239 476.161 430.543 476.069 431.8C475.977 433.027 475.931 434.146 475.931 435.158C475.931 435.741 475.962 436.354 476.023 436.998C476.115 437.611 476.314 438.133 476.621 438.562C476.928 438.961 477.418 439.16 478.093 439.16C478.4 439.16 478.768 439.099 479.197 438.976C479.657 438.853 480.163 438.562 480.715 438.102C481.267 437.642 481.834 436.921 482.417 435.94L483.613 436.722C482.724 438.286 481.758 439.482 480.715 440.31C479.703 441.107 478.461 441.506 476.989 441.506C475.793 441.506 474.842 441.261 474.137 440.77C473.462 440.249 472.972 439.574 472.665 438.746C472.358 437.918 472.205 437.029 472.205 436.078C472.205 434.913 472.251 433.502 472.343 431.846C472.435 430.159 472.573 428.304 472.757 426.28C472.941 424.225 473.156 422.094 473.401 419.886L469.307 419.932L469.445 418C471.561 418 473.125 417.433 474.137 416.298C475.149 415.163 475.946 413.569 476.529 411.514H478.277ZM500.079 453.466C499.036 453.405 498.193 453.098 497.549 452.546C496.905 452.025 496.583 451.365 496.583 450.568C496.583 449.863 496.797 449.326 497.227 448.958C497.656 448.621 498.07 448.452 498.469 448.452C499.849 448.452 500.508 449.249 500.447 450.844C500.631 450.936 500.799 451.013 500.953 451.074C501.106 451.135 501.275 451.166 501.459 451.166C502.133 451.197 502.823 450.951 503.529 450.43C504.265 449.909 504.955 449.249 505.599 448.452C506.273 447.685 506.856 446.919 507.347 446.152C507.868 445.416 508.251 444.849 508.497 444.45C508.221 442.671 507.899 440.847 507.531 438.976C507.163 437.075 506.733 435.189 506.243 433.318C505.783 431.417 505.261 429.592 504.679 427.844C504.127 426.065 503.529 424.394 502.885 422.83C502.67 422.309 502.394 421.772 502.057 421.22C501.719 420.668 501.244 420.423 500.631 420.484C500.048 420.545 499.603 421.005 499.297 421.864C499.021 422.723 498.944 423.857 499.067 425.268L497.595 425.452C497.503 424.624 497.487 423.75 497.549 422.83C497.641 421.91 497.84 421.051 498.147 420.254C498.453 419.426 498.898 418.767 499.481 418.276C500.063 417.755 500.83 417.494 501.781 417.494C502.823 417.494 503.667 417.77 504.311 418.322C504.985 418.874 505.522 419.549 505.921 420.346C506.35 421.143 506.703 421.925 506.979 422.692C507.561 424.256 508.129 426.05 508.681 428.074C509.233 430.098 509.708 432.168 510.107 434.284C510.536 436.369 510.858 438.317 511.073 440.126H511.165C512.023 438.623 512.851 436.967 513.649 435.158C514.446 433.349 515.105 431.509 515.627 429.638C516.148 427.737 516.409 425.958 516.409 424.302C516.409 423.535 516.332 422.861 516.179 422.278C516.056 421.695 515.903 421.281 515.719 421.036C515.596 421.128 515.427 421.205 515.213 421.266C515.029 421.297 514.814 421.312 514.569 421.312C514.017 421.312 513.572 421.143 513.235 420.806C512.897 420.438 512.729 420.009 512.729 419.518C512.729 418.843 512.943 418.337 513.373 418C513.833 417.663 514.339 417.494 514.891 417.494C515.841 417.494 516.577 417.785 517.099 418.368C517.62 418.951 517.988 419.687 518.203 420.576C518.448 421.465 518.571 422.401 518.571 423.382C518.571 425.406 518.279 427.476 517.697 429.592C517.114 431.708 516.347 433.793 515.397 435.848C514.477 437.903 513.495 439.881 512.453 441.782C510.919 444.542 509.447 446.796 508.037 448.544C506.657 450.292 505.307 451.549 503.989 452.316C502.67 453.113 501.367 453.497 500.079 453.466ZM533.92 417.494C535.576 417.494 537.063 417.893 538.382 418.69C539.7 419.457 540.743 420.591 541.51 422.094C542.276 423.597 542.66 425.421 542.66 427.568C542.66 430.021 542.215 432.321 541.326 434.468C540.436 436.584 539.148 438.286 537.462 439.574C535.806 440.862 533.782 441.506 531.39 441.506C529.366 441.506 527.694 441.046 526.376 440.126C525.088 439.206 524.122 437.964 523.478 436.4C522.864 434.836 522.558 433.103 522.558 431.202C522.558 428.718 523.002 426.433 523.892 424.348C524.812 422.263 526.115 420.607 527.802 419.38C529.519 418.123 531.558 417.494 533.92 417.494ZM533.23 419.196C531.88 419.165 530.715 419.625 529.734 420.576C528.752 421.496 527.986 422.753 527.434 424.348C526.912 425.943 526.636 427.721 526.606 429.684C526.575 430.727 526.636 431.831 526.79 432.996C526.943 434.161 527.204 435.25 527.572 436.262C527.97 437.274 528.507 438.102 529.182 438.746C529.887 439.39 530.761 439.727 531.804 439.758C533.03 439.789 534.073 439.467 534.932 438.792C535.79 438.087 536.48 437.182 537.002 436.078C537.523 434.974 537.906 433.793 538.152 432.536C538.428 431.279 538.581 430.098 538.612 428.994C538.642 427.921 538.581 426.817 538.428 425.682C538.305 424.547 538.044 423.489 537.646 422.508C537.247 421.527 536.695 420.745 535.99 420.162C535.284 419.549 534.364 419.227 533.23 419.196ZM554.32 441.506C553.093 441.506 552.112 441.23 551.376 440.678C550.64 440.126 550.103 439.39 549.766 438.47C549.459 437.55 549.306 436.569 549.306 435.526C549.306 433.809 549.429 432.076 549.674 430.328C549.919 428.58 550.165 426.97 550.41 425.498C550.655 423.995 550.778 422.815 550.778 421.956C550.778 421.373 550.701 420.867 550.548 420.438C550.425 420.009 550.088 419.794 549.536 419.794C549.045 419.794 548.493 420.131 547.88 420.806C547.297 421.481 546.776 422.631 546.316 424.256L545.028 423.98C545.12 423.428 545.304 422.799 545.58 422.094C545.856 421.358 546.224 420.637 546.684 419.932C547.175 419.227 547.757 418.644 548.432 418.184C549.137 417.724 549.95 417.494 550.87 417.494C552.097 417.494 553.017 417.877 553.63 418.644C554.274 419.411 554.596 420.515 554.596 421.956C554.596 422.815 554.519 423.873 554.366 425.13C554.213 426.387 554.029 427.706 553.814 429.086C553.63 430.435 553.461 431.754 553.308 433.042C553.155 434.33 553.078 435.465 553.078 436.446C553.078 436.783 553.124 437.182 553.216 437.642C553.339 438.102 553.553 438.501 553.86 438.838C554.197 439.175 554.657 439.344 555.24 439.344C556.099 439.344 556.942 438.945 557.77 438.148C558.598 437.351 559.38 436.277 560.116 434.928C560.852 433.579 561.511 432.091 562.094 430.466C562.677 428.81 563.121 427.123 563.428 425.406C563.765 423.658 563.934 422.002 563.934 420.438C563.934 419.978 563.919 419.564 563.888 419.196C563.888 418.797 563.873 418.399 563.842 418H567.706C567.737 418.215 567.752 418.414 567.752 418.598C567.752 418.751 567.752 418.951 567.752 419.196C567.752 419.717 567.721 420.346 567.66 421.082C567.599 421.787 567.507 422.738 567.384 423.934C567.261 425.099 567.077 426.648 566.832 428.58C566.617 430.359 566.449 431.754 566.326 432.766C566.234 433.778 566.157 434.545 566.096 435.066C566.035 435.557 565.989 435.94 565.958 436.216C565.958 436.492 565.958 436.799 565.958 437.136C565.958 437.688 566.035 438.163 566.188 438.562C566.372 438.961 566.709 439.16 567.2 439.16C567.721 439.16 568.289 438.838 568.902 438.194C569.546 437.519 570.098 436.369 570.558 434.744L571.846 435.02C571.754 435.572 571.555 436.216 571.248 436.952C570.972 437.657 570.589 438.363 570.098 439.068C569.607 439.773 569.009 440.356 568.304 440.816C567.599 441.276 566.786 441.506 565.866 441.506C564.639 441.506 563.735 441.123 563.152 440.356C562.6 439.589 562.324 438.593 562.324 437.366C562.324 436.477 562.401 435.511 562.554 434.468C562.738 433.425 562.937 432.337 563.152 431.202H563.014C561.971 433.993 560.975 436.139 560.024 437.642C559.073 439.114 558.138 440.126 557.218 440.678C556.298 441.23 555.332 441.506 554.32 441.506ZM576.666 441C576.635 440.785 576.62 440.601 576.62 440.448C576.62 440.264 576.62 440.049 576.62 439.804C576.62 439.283 576.635 438.669 576.666 437.964C576.696 437.228 576.758 436.262 576.85 435.066C576.972 433.87 577.141 432.306 577.356 430.374C577.57 428.381 577.739 426.878 577.862 425.866C577.984 424.854 578.076 424.118 578.138 423.658C578.199 423.167 578.23 422.769 578.23 422.462C578.26 421.849 578.214 421.251 578.092 420.668C578 420.085 577.632 419.794 576.988 419.794C576.497 419.794 575.93 420.131 575.286 420.806C574.642 421.481 574.09 422.631 573.63 424.256L572.342 423.98C572.434 423.428 572.618 422.799 572.894 422.094C573.2 421.358 573.599 420.637 574.09 419.932C574.58 419.227 575.178 418.644 575.884 418.184C576.589 417.724 577.402 417.494 578.322 417.494C579.702 417.494 580.622 417.969 581.082 418.92C581.542 419.871 581.741 421.143 581.68 422.738C581.649 423.413 581.557 424.164 581.404 424.992C581.281 425.789 581.143 426.633 580.99 427.522H581.128C582.017 424.854 582.937 422.799 583.888 421.358C584.869 419.917 585.85 418.92 586.832 418.368C587.844 417.785 588.84 417.494 589.822 417.494C590.742 417.494 591.508 417.739 592.122 418.23C592.735 418.69 593.042 419.334 593.042 420.162C593.042 420.714 592.842 421.22 592.444 421.68C592.076 422.14 591.57 422.37 590.926 422.37C590.374 422.37 589.898 422.201 589.5 421.864C589.101 421.527 588.871 421.051 588.81 420.438C587.951 420.254 587.108 420.53 586.28 421.266C585.482 422.002 584.716 423.06 583.98 424.44C583.274 425.789 582.646 427.307 582.094 428.994C581.572 430.681 581.158 432.398 580.852 434.146C580.545 435.894 580.392 437.519 580.392 439.022C580.392 439.482 580.392 439.835 580.392 440.08C580.422 440.295 580.453 440.601 580.484 441H576.666ZM601.513 441.506C600.287 441.506 599.106 441.322 597.971 440.954C596.837 440.555 595.917 439.988 595.211 439.252C594.506 438.516 594.153 437.627 594.153 436.584C594.153 435.909 594.337 435.373 594.705 434.974C595.104 434.545 595.579 434.33 596.131 434.33C596.745 434.33 597.205 434.529 597.511 434.928C597.849 435.327 598.017 435.771 598.017 436.262C598.017 436.477 597.987 436.707 597.925 436.952C597.864 437.197 597.757 437.443 597.603 437.688C597.849 438.363 598.339 438.884 599.075 439.252C599.811 439.62 600.593 439.804 601.421 439.804C603.077 439.804 604.319 439.421 605.147 438.654C605.975 437.887 606.389 436.814 606.389 435.434C606.389 434.606 606.098 433.87 605.515 433.226C604.933 432.582 604.197 431.984 603.307 431.432C602.418 430.849 601.498 430.282 600.547 429.73C599.658 429.178 598.799 428.611 597.971 428.028C597.174 427.445 596.515 426.801 595.993 426.096C595.503 425.391 595.257 424.593 595.257 423.704C595.257 422.569 595.595 421.542 596.269 420.622C596.944 419.671 597.879 418.92 599.075 418.368C600.271 417.785 601.651 417.494 603.215 417.494C604.381 417.494 605.469 417.678 606.481 418.046C607.524 418.414 608.367 418.935 609.011 419.61C609.686 420.285 610.023 421.082 610.023 422.002C610.023 422.646 609.839 423.167 609.471 423.566C609.103 423.934 608.643 424.118 608.091 424.118C607.539 424.118 607.095 423.934 606.757 423.566C606.42 423.198 606.251 422.769 606.251 422.278C606.251 422.033 606.282 421.803 606.343 421.588C606.405 421.343 606.512 421.097 606.665 420.852C606.512 420.331 606.129 419.901 605.515 419.564C604.933 419.196 604.12 419.012 603.077 419.012C602.403 419.012 601.743 419.165 601.099 419.472C600.455 419.779 599.919 420.208 599.489 420.76C599.06 421.281 598.845 421.91 598.845 422.646C598.845 423.229 599.014 423.765 599.351 424.256C599.719 424.747 600.195 425.207 600.777 425.636C601.36 426.065 601.989 426.495 602.663 426.924C603.767 427.568 604.902 428.258 606.067 428.994C607.233 429.699 608.199 430.512 608.965 431.432C609.763 432.352 610.161 433.471 610.161 434.79C610.161 436.078 609.793 437.228 609.057 438.24C608.352 439.252 607.34 440.049 606.021 440.632C604.733 441.215 603.231 441.506 601.513 441.506ZM625.421 417.494C626.525 417.494 627.568 417.663 628.549 418C629.531 418.337 630.328 418.889 630.941 419.656C631.555 420.423 631.861 421.465 631.861 422.784C631.861 424.041 631.432 425.13 630.573 426.05C629.715 426.97 628.595 427.737 627.215 428.35C625.835 428.933 624.363 429.408 622.799 429.776C621.235 430.144 619.733 430.405 618.291 430.558C618.291 432.459 618.475 434.054 618.843 435.342C619.242 436.63 619.825 437.596 620.591 438.24C621.358 438.884 622.339 439.206 623.535 439.206C624.425 439.206 625.314 439.007 626.203 438.608C627.123 438.209 627.997 437.611 628.825 436.814C629.653 435.986 630.405 434.928 631.079 433.64L632.597 434.514C631.739 436.109 630.819 437.427 629.837 438.47C628.856 439.513 627.783 440.279 626.617 440.77C625.452 441.261 624.164 441.506 622.753 441.506C619.84 441.506 617.693 440.601 616.313 438.792C614.933 436.952 614.243 434.545 614.243 431.57C614.243 429.791 614.473 428.059 614.933 426.372C615.393 424.685 616.083 423.183 617.003 421.864C617.923 420.515 619.089 419.457 620.499 418.69C621.91 417.893 623.551 417.494 625.421 417.494ZM624.777 419.058C623.367 419.058 622.201 419.533 621.281 420.484C620.392 421.435 619.702 422.661 619.211 424.164C618.751 425.667 618.46 427.246 618.337 428.902C619.963 428.687 621.511 428.304 622.983 427.752C624.455 427.2 625.667 426.495 626.617 425.636C627.568 424.747 628.043 423.719 628.043 422.554C628.043 421.573 627.767 420.745 627.215 420.07C626.694 419.395 625.881 419.058 624.777 419.058ZM644.215 406.27C644.123 407.037 643.985 407.895 643.801 408.846C643.648 409.797 643.494 410.732 643.341 411.652C643.218 412.572 643.111 413.385 643.019 414.09C642.835 415.378 642.651 416.85 642.467 418.506C642.283 420.131 642.099 421.833 641.915 423.612C641.731 425.36 641.562 427.077 641.409 428.764C641.286 430.451 641.179 431.999 641.087 433.41C640.995 434.79 640.949 435.925 640.949 436.814C640.949 437.397 641.01 437.949 641.133 438.47C641.256 438.961 641.608 439.206 642.191 439.206C642.712 439.206 643.28 438.884 643.893 438.24C644.537 437.565 645.089 436.4 645.549 434.744L646.837 435.066C646.745 435.587 646.546 436.216 646.239 436.952C645.963 437.688 645.58 438.409 645.089 439.114C644.598 439.789 644 440.356 643.295 440.816C642.62 441.276 641.823 441.506 640.903 441.506C639.646 441.506 638.726 441.199 638.143 440.586C637.56 439.942 637.254 439.007 637.223 437.78C637.192 437.013 637.223 435.879 637.315 434.376C637.438 432.873 637.576 431.171 637.729 429.27C637.913 427.338 638.112 425.329 638.327 423.244C638.542 421.128 638.772 419.073 639.017 417.08C639.262 415.087 639.492 413.277 639.707 411.652C639.86 410.824 639.952 410.287 639.983 410.042C640.044 409.766 640.09 409.475 640.121 409.168C639.569 409.199 639.017 409.229 638.465 409.26C637.944 409.291 637.407 409.321 636.855 409.352L637.085 407.512C638.434 407.512 639.477 407.451 640.213 407.328C640.98 407.205 641.562 407.052 641.961 406.868C642.36 406.684 642.682 406.485 642.927 406.27H644.215ZM661.934 406.04C663.069 406.009 663.943 406.209 664.556 406.638C665.17 407.037 665.476 407.635 665.476 408.432C665.476 408.647 665.415 408.907 665.292 409.214C665.2 409.521 665.016 409.781 664.74 409.996C664.464 410.18 664.096 410.272 663.636 410.272C663.054 410.272 662.594 410.057 662.256 409.628C661.919 409.199 661.766 408.647 661.796 407.972C661.704 407.911 661.52 407.865 661.244 407.834C660.968 407.773 660.708 407.757 660.462 407.788C659.726 407.849 659.113 408.156 658.622 408.708C658.162 409.229 657.779 409.95 657.472 410.87C657.166 411.759 656.92 412.817 656.736 414.044C656.552 415.24 656.399 416.559 656.276 418H662.808L662.67 419.794L656.138 419.886C656.108 420.683 656.062 421.496 656 422.324C655.97 423.152 655.924 424.011 655.862 424.9C655.832 425.759 655.786 426.633 655.724 427.522C655.663 428.381 655.586 429.255 655.494 430.144C655.28 432.383 655.08 434.621 654.896 436.86C654.712 439.068 654.436 441.169 654.068 443.162C653.731 445.155 653.225 446.919 652.55 448.452C651.876 450.016 650.94 451.243 649.744 452.132C648.579 453.021 647.076 453.466 645.236 453.466C644.071 453.466 643.182 453.251 642.568 452.822C641.955 452.423 641.648 451.841 641.648 451.074C641.648 450.829 641.71 450.553 641.832 450.246C641.955 449.97 642.154 449.709 642.43 449.464C642.706 449.249 643.074 449.157 643.534 449.188C644.086 449.219 644.531 449.418 644.868 449.786C645.175 450.185 645.328 450.691 645.328 451.304C645.666 451.549 646.11 451.672 646.662 451.672C647.736 451.672 648.548 451.105 649.1 449.97C649.683 448.835 650.112 447.256 650.388 445.232C650.664 443.239 650.879 440.923 651.032 438.286C651.216 435.618 651.446 432.766 651.722 429.73C651.784 428.902 651.845 428.074 651.906 427.246C651.968 426.418 652.029 425.59 652.09 424.762C652.152 423.934 652.213 423.121 652.274 422.324C652.366 421.496 652.458 420.699 652.55 419.932L648.502 419.978L648.732 418H652.78C653.118 415.761 653.608 413.753 654.252 411.974C654.896 410.195 655.832 408.769 657.058 407.696C658.285 406.623 659.91 406.071 661.934 406.04ZM683.411 406.27C683.289 407.129 683.151 408.033 682.997 408.984C682.875 409.904 682.767 410.809 682.675 411.698C682.583 412.557 682.491 413.339 682.399 414.044C682.277 415.393 682.139 416.773 681.985 418.184C681.832 419.595 681.679 421.067 681.525 422.6C681.372 424.103 681.219 425.667 681.065 427.292H681.203C681.817 425.084 682.491 423.321 683.227 422.002C683.963 420.683 684.73 419.702 685.527 419.058C686.325 418.414 687.107 418 687.873 417.816C688.671 417.601 689.407 417.494 690.081 417.494C691.492 417.494 692.611 417.893 693.439 418.69C694.298 419.487 694.911 420.53 695.279 421.818C695.647 423.075 695.831 424.455 695.831 425.958C695.831 428.074 695.586 430.067 695.095 431.938C694.635 433.809 693.899 435.465 692.887 436.906C691.875 438.347 690.557 439.482 688.931 440.31C687.306 441.107 685.359 441.506 683.089 441.506C682.599 441.506 682.001 441.475 681.295 441.414C680.59 441.353 679.869 441.245 679.133 441.092C678.397 440.969 677.707 440.785 677.063 440.54C677.278 437.535 677.462 434.836 677.615 432.444C677.769 430.052 677.907 427.767 678.029 425.59C678.183 423.413 678.336 421.205 678.489 418.966C678.673 416.727 678.873 414.274 679.087 411.606C679.149 410.809 679.195 410.303 679.225 410.088C679.256 409.873 679.302 409.567 679.363 409.168C678.811 409.199 678.259 409.229 677.707 409.26C677.155 409.291 676.603 409.321 676.051 409.352L676.235 407.512C677.585 407.512 678.643 407.451 679.409 407.328C680.176 407.205 680.743 407.052 681.111 406.868C681.51 406.684 681.832 406.485 682.077 406.27H683.411ZM688.747 419.656C687.889 419.687 687.045 420.131 686.217 420.99C685.42 421.818 684.684 422.922 684.009 424.302C683.335 425.651 682.737 427.169 682.215 428.856C681.694 430.512 681.28 432.214 680.973 433.962C680.667 435.679 680.498 437.305 680.467 438.838C680.835 439.206 681.341 439.482 681.985 439.666C682.66 439.819 683.289 439.896 683.871 439.896C685.221 439.865 686.355 439.574 687.275 439.022C688.226 438.439 689.008 437.673 689.621 436.722C690.235 435.741 690.71 434.667 691.047 433.502C691.385 432.306 691.615 431.095 691.737 429.868C691.86 428.641 691.906 427.461 691.875 426.326C691.845 424.241 691.584 422.6 691.093 421.404C690.603 420.177 689.821 419.595 688.747 419.656ZM711.092 417.494C712.748 417.494 714.235 417.893 715.554 418.69C716.872 419.457 717.915 420.591 718.682 422.094C719.448 423.597 719.832 425.421 719.832 427.568C719.832 430.021 719.387 432.321 718.498 434.468C717.608 436.584 716.32 438.286 714.634 439.574C712.978 440.862 710.954 441.506 708.562 441.506C706.538 441.506 704.866 441.046 703.548 440.126C702.26 439.206 701.294 437.964 700.65 436.4C700.036 434.836 699.73 433.103 699.73 431.202C699.73 428.718 700.174 426.433 701.064 424.348C701.984 422.263 703.287 420.607 704.974 419.38C706.691 418.123 708.73 417.494 711.092 417.494ZM710.402 419.196C709.052 419.165 707.887 419.625 706.906 420.576C705.924 421.496 705.158 422.753 704.606 424.348C704.084 425.943 703.808 427.721 703.778 429.684C703.747 430.727 703.808 431.831 703.962 432.996C704.115 434.161 704.376 435.25 704.744 436.262C705.142 437.274 705.679 438.102 706.354 438.746C707.059 439.39 707.933 439.727 708.976 439.758C710.202 439.789 711.245 439.467 712.104 438.792C712.962 438.087 713.652 437.182 714.174 436.078C714.695 434.974 715.078 433.793 715.324 432.536C715.6 431.279 715.753 430.098 715.784 428.994C715.814 427.921 715.753 426.817 715.6 425.682C715.477 424.547 715.216 423.489 714.818 422.508C714.419 421.527 713.867 420.745 713.162 420.162C712.456 419.549 711.536 419.227 710.402 419.196ZM735.08 417.494C736.736 417.494 738.223 417.893 739.542 418.69C740.86 419.457 741.903 420.591 742.67 422.094C743.436 423.597 743.82 425.421 743.82 427.568C743.82 430.021 743.375 432.321 742.486 434.468C741.596 436.584 740.308 438.286 738.622 439.574C736.966 440.862 734.942 441.506 732.55 441.506C730.526 441.506 728.854 441.046 727.536 440.126C726.248 439.206 725.282 437.964 724.638 436.4C724.024 434.836 723.718 433.103 723.718 431.202C723.718 428.718 724.162 426.433 725.052 424.348C725.972 422.263 727.275 420.607 728.962 419.38C730.679 418.123 732.718 417.494 735.08 417.494ZM734.39 419.196C733.04 419.165 731.875 419.625 730.894 420.576C729.912 421.496 729.146 422.753 728.594 424.348C728.072 425.943 727.796 427.721 727.766 429.684C727.735 430.727 727.796 431.831 727.95 432.996C728.103 434.161 728.364 435.25 728.732 436.262C729.13 437.274 729.667 438.102 730.342 438.746C731.047 439.39 731.921 439.727 732.964 439.758C734.19 439.789 735.233 439.467 736.092 438.792C736.95 438.087 737.64 437.182 738.162 436.078C738.683 434.974 739.066 433.793 739.312 432.536C739.588 431.279 739.741 430.098 739.772 428.994C739.802 427.921 739.741 426.817 739.588 425.682C739.465 424.547 739.204 423.489 738.806 422.508C738.407 421.527 737.855 420.745 737.15 420.162C736.444 419.549 735.524 419.227 734.39 419.196ZM763.576 441.506C762.411 441.506 761.429 441.031 760.632 440.08C759.865 439.129 759.083 437.596 758.286 435.48C757.703 433.947 757.182 432.843 756.722 432.168C756.262 431.493 755.587 431.141 754.698 431.11C754.483 431.11 754.284 431.125 754.1 431.156C753.916 431.156 753.717 431.156 753.502 431.156C753.165 432.413 752.889 433.686 752.674 434.974C752.49 436.231 752.398 437.427 752.398 438.562C752.398 439.022 752.398 439.451 752.398 439.85C752.429 440.218 752.459 440.601 752.49 441H748.718C748.687 440.785 748.672 440.601 748.672 440.448C748.672 440.264 748.672 440.049 748.672 439.804C748.672 438.945 748.718 437.673 748.81 435.986C748.902 434.269 749.025 432.321 749.178 430.144C749.331 427.967 749.5 425.728 749.684 423.428C749.868 421.128 750.067 418.951 750.282 416.896C750.527 414.811 750.757 413.047 750.972 411.606C751.095 410.809 751.171 410.303 751.202 410.088C751.263 409.873 751.325 409.567 751.386 409.168C750.865 409.199 750.328 409.229 749.776 409.26C749.224 409.291 748.687 409.321 748.166 409.352L748.35 407.512C749.699 407.512 750.742 407.451 751.478 407.328C752.245 407.205 752.812 407.052 753.18 406.868C753.548 406.684 753.855 406.485 754.1 406.27H755.434C755.281 407.037 755.127 407.895 754.974 408.846C754.851 409.797 754.729 410.732 754.606 411.652C754.483 412.572 754.376 413.385 754.284 414.09C754.008 416.237 753.747 418.475 753.502 420.806C753.287 423.137 753.103 425.452 752.95 427.752H753.088C754.008 425.023 754.943 422.922 755.894 421.45C756.875 419.978 757.887 418.951 758.93 418.368C759.973 417.785 761.031 417.494 762.104 417.494C763.177 417.494 764.036 417.739 764.68 418.23C765.324 418.69 765.799 419.303 766.106 420.07C766.413 420.837 766.566 421.634 766.566 422.462C766.566 423.535 766.244 424.655 765.6 425.82C764.956 426.985 763.975 428.028 762.656 428.948C761.368 429.837 759.712 430.466 757.688 430.834V430.88C758.761 430.911 759.574 431.171 760.126 431.662C760.709 432.122 761.245 432.935 761.736 434.1C762.073 434.805 762.395 435.526 762.702 436.262C763.039 436.998 763.392 437.611 763.76 438.102C764.128 438.593 764.527 438.869 764.956 438.93C765.477 438.961 765.922 438.777 766.29 438.378C766.658 437.979 766.98 437.213 767.256 436.078L768.544 436.308C768.36 437.167 768.053 437.995 767.624 438.792C767.225 439.589 766.689 440.249 766.014 440.77C765.339 441.261 764.527 441.506 763.576 441.506ZM753.87 429.822C756.783 429.822 759.007 429.193 760.54 427.936C762.073 426.679 762.84 424.885 762.84 422.554C762.84 422.155 762.794 421.726 762.702 421.266C762.61 420.806 762.411 420.407 762.104 420.07C761.797 419.733 761.322 419.595 760.678 419.656C759.85 419.717 759.007 420.223 758.148 421.174C757.32 422.125 756.538 423.367 755.802 424.9C755.066 426.403 754.422 428.043 753.87 429.822ZM778.551 441.506C777.324 441.506 776.143 441.322 775.009 440.954C773.874 440.555 772.954 439.988 772.249 439.252C771.543 438.516 771.191 437.627 771.191 436.584C771.191 435.909 771.375 435.373 771.743 434.974C772.141 434.545 772.617 434.33 773.169 434.33C773.782 434.33 774.242 434.529 774.549 434.928C774.886 435.327 775.055 435.771 775.055 436.262C775.055 436.477 775.024 436.707 774.963 436.952C774.901 437.197 774.794 437.443 774.641 437.688C774.886 438.363 775.377 438.884 776.113 439.252C776.849 439.62 777.631 439.804 778.459 439.804C780.115 439.804 781.357 439.421 782.185 438.654C783.013 437.887 783.427 436.814 783.427 435.434C783.427 434.606 783.135 433.87 782.553 433.226C781.97 432.582 781.234 431.984 780.345 431.432C779.455 430.849 778.535 430.282 777.585 429.73C776.695 429.178 775.837 428.611 775.009 428.028C774.211 427.445 773.552 426.801 773.031 426.096C772.54 425.391 772.295 424.593 772.295 423.704C772.295 422.569 772.632 421.542 773.307 420.622C773.981 419.671 774.917 418.92 776.113 418.368C777.309 417.785 778.689 417.494 780.253 417.494C781.418 417.494 782.507 417.678 783.519 418.046C784.561 418.414 785.405 418.935 786.049 419.61C786.723 420.285 787.061 421.082 787.061 422.002C787.061 422.646 786.877 423.167 786.509 423.566C786.141 423.934 785.681 424.118 785.129 424.118C784.577 424.118 784.132 423.934 783.795 423.566C783.457 423.198 783.289 422.769 783.289 422.278C783.289 422.033 783.319 421.803 783.381 421.588C783.442 421.343 783.549 421.097 783.703 420.852C783.549 420.331 783.166 419.901 782.553 419.564C781.97 419.196 781.157 419.012 780.115 419.012C779.44 419.012 778.781 419.165 778.137 419.472C777.493 419.779 776.956 420.208 776.527 420.76C776.097 421.281 775.883 421.91 775.883 422.646C775.883 423.229 776.051 423.765 776.389 424.256C776.757 424.747 777.232 425.207 777.815 425.636C778.397 426.065 779.026 426.495 779.701 426.924C780.805 427.568 781.939 428.258 783.105 428.994C784.27 429.699 785.236 430.512 786.003 431.432C786.8 432.352 787.199 433.471 787.199 434.79C787.199 436.078 786.831 437.228 786.095 438.24C785.389 439.252 784.377 440.049 783.059 440.632C781.771 441.215 780.268 441.506 778.551 441.506Z" fill="#7A756E"/>
</g>
</g>
<defs>
<linearGradient id="paint0_linear_7_2" x1="0" y1="0" x2="36887.5" y2="87827.3" gradientUnits="userSpaceOnUse">
<stop stop-color="#F5F0E8"/>
<stop offset="0.5" stop-color="#EBE4D8"/>
<stop offset="1" stop-color="#E5DDD0"/>
</linearGradient>
<clipPath id="clip0_7_2">
<rect width="1200" height="630" fill="white"/>
</clipPath>
<clipPath id="clip1_7_2">
<rect width="1200" height="630" fill="white"/>
</clipPath>
</defs>
</svg>
